<?xml version="1.0" standalone="no"?><!DOCTYPE svg PUBLIC "-//W3C//DTD SVG 1.1//EN" "http://www.w3.org/Graphics/SVG/1.1/DTD/svg11.dtd"><svg t="1729622936506" class="icon" viewBox="0 0 1024 1024" version="1.1" xmlns="http://www.w3.org/2000/svg" p-id="7777" xmlns:xlink="http://www.w3.org/1999/xlink" width="200" height="200"><path d="M641.01 223.5h-362c-17.67 0-32 14.33-32 32s14.33 32 32 32h362c17.67 0 32-14.33 32-32s-14.33-32-32-32zM542.77 400.75H279.01c-17.67 0-32 14.33-32 32s14.33 32 32 32h263.76c17.67 0 32-14.33 32-32s-14.33-32-32-32zM369.76 578h-90.75c-17.67 0-32 14.33-32 32s14.33 32 32 32h90.75c17.67 0 32-14.33 32-32s-14.33-32-32-32z" p-id="7778"></path><path d="M411.42 960h-198.4c-61.76 0-112-50.24-112-112V176c0-61.76 50.24-112 112-112H707c61.76 0 112 50.24 112 112v242.21c0 17.67-14.33 32-32 32s-32-14.33-32-32V176c0-26.47-21.53-48-48-48H213.02c-26.47 0-48 21.53-48 48v672c0 26.47 21.53 48 48 48h198.4c17.67 0 32 14.33 32 32s-14.33 32-32 32z" p-id="7779"></path><path d="M722.75 569c28.67 0 52 23.33 52 52s-23.33 52-52 52-52-23.33-52-52 23.33-52 52-52m0-64c-64.07 0-116 51.93-116 116s51.93 116 116 116 116-51.93 116-116-51.93-116-116-116z" p-id="7780"></path><path d="M894.5 961c-17.67 0-32-14.33-32-32 0-52.83-15.52-102.17-43.7-138.92-26.24-34.23-60.35-53.08-96.05-53.08s-69.81 18.85-96.05 53.08C598.52 826.83 583 876.17 583 929c0 17.67-14.33 32-32 32s-32-14.33-32-32c0-66.83 20.21-130 56.91-177.86 18.48-24.1 40.19-43.13 64.53-56.55C666.4 680.26 694.1 673 722.75 673s56.35 7.26 82.31 21.58c24.34 13.43 46.05 32.46 64.53 56.55C906.29 799 926.5 862.17 926.5 929c0 17.67-14.33 32-32 32z" p-id="7781"></path></svg>