<?xml version="1.0" standalone="no"?><!DOCTYPE svg PUBLIC "-//W3C//DTD SVG 1.1//EN" "http://www.w3.org/Graphics/SVG/1.1/DTD/svg11.dtd"><svg t="1729623052201" class="icon" viewBox="0 0 1092 1024" version="1.1" xmlns="http://www.w3.org/2000/svg" p-id="10574" xmlns:xlink="http://www.w3.org/1999/xlink" width="213.28125" height="200"><path d="M1039.701333 443.255467L600.200533 61.781333A83.5584 83.5584 0 0 0 492.066133 60.484267L53.4528 423.662933a38.5024 38.5024 0 0 0-5.666133 53.248 36.4544 36.4544 0 0 0 52.087466 5.666134l438.818134-363.178667a10.581333 10.581333 0 0 1 13.653333 0l439.364267 381.474133a36.522667 36.522667 0 0 0 52.224-4.437333 38.5024 38.5024 0 0 0-4.3008-53.248z m-133.3248 89.156266a37.546667 37.546667 0 0 0-37.0688 37.956267v339.626667a10.922667 10.922667 0 0 1-10.6496 11.127466h-140.356266a10.922667 10.922667 0 0 1-10.717867-11.127466V676.113067c0-47.786667-38.0928-86.8352-84.855467-86.8352H454.724267c-46.830933 0-84.855467 39.048533-84.855467 86.903466v233.813334a10.922667 10.922667 0 0 1-10.717867 11.127466H214.084267a10.922667 10.922667 0 0 1-10.6496-11.127466V570.436267a37.614933 37.614933 0 0 0-37.137067-37.956267 37.546667 37.546667 0 0 0-37.0688 37.956267v339.626666c0 47.9232 38.024533 86.903467 84.923733 86.903467H359.082667c46.830933 0 84.7872-38.912 84.7872-86.903467V676.181333a10.922667 10.922667 0 0 1 10.786133-11.0592h168.072533c5.9392 0 10.786133 5.051733 10.786134 11.127467v233.813333c0 47.9232 37.956267 86.903467 84.7872 86.903467h140.356266c46.762667 0 84.7872-38.912 84.7872-86.903467V570.436267a37.546667 37.546667 0 0 0-37.0688-37.956267l0.068267-0.068267z" p-id="10575"></path></svg>